<svg id="Layer_2" data-name="Layer 2" xmlns="http://www.w3.org/2000/svg" viewBox="0 0 245 245"><defs><style>.cls-1{fill:#94b43b;}.cls-2{fill:#fff;}</style></defs><title>Artboard 1</title><g id="g4233"><circle id="path4218" class="cls-1" cx="122.5" cy="122.5" r="118.46"/><path id="rect4147" class="cls-2" d="M37.2,82c0,13.08,0,26.19,0,39.25,0,21.68,12.71,39.25,39.25,39.25,12.92,0,26.23,0,39.25,0V82h-13v40.72c0,13.75-11.75,24.91-26.24,24.9s-26.24-11.15-26.24-24.9V82h-13Z"/><path id="path4214" class="cls-2" d="M207.38,160.47c0-13.08,0-26.19,0-39.25,0-21.68-12.71-39.25-39.25-39.25-12.92,0-26.23,0-39.25,0v78.51h13V119.75c0-13.75,11.75-24.91,26.24-24.9s26.24,11.15,26.24,24.9v40.72h13Z"/></g></svg>